<?xml version="1.0" standalone="no"?>
<!DOCTYPE svg PUBLIC "-//W3C//DTD SVG 20010904//EN"
 "http://www.w3.org/TR/2001/REC-SVG-20010904/DTD/svg10.dtd">
<svg version="1.0" xmlns="http://www.w3.org/2000/svg"
 width="980.000000pt" height="980.000000pt" viewBox="0 0 980.000000 980.000000"
 preserveAspectRatio="xMidYMid meet">

<g transform="translate(0.000000,980.000000) scale(0.100000,-0.100000)"
fill="#000000" stroke="none">
<path d="M4298 9753 c7 -3 16 -2 19 1 4 3 -2 6 -13 5 -11 0 -14 -3 -6 -6z"/>
<path d="M4208 9743 c6 -2 18 -2 25 0 6 3 1 5 -13 5 -14 0 -19 -2 -12 -5z"/>
<path d="M4138 9733 c7 -3 16 -2 19 1 4 3 -2 6 -13 5 -11 0 -14 -3 -6 -6z"/>
<path d="M4028 9713 c7 -3 16 -2 19 1 4 3 -2 6 -13 5 -11 0 -14 -3 -6 -6z"/>
<path d="M3968 9703 c7 -3 16 -2 19 1 4 3 -2 6 -13 5 -11 0 -14 -3 -6 -6z"/>
<path d="M3918 9693 c6 -2 18 -2 25 0 6 3 1 5 -13 5 -14 0 -19 -2 -12 -5z"/>
<path d="M3878 9683 c7 -3 16 -2 19 1 4 3 -2 6 -13 5 -11 0 -14 -3 -6 -6z"/>
<path d="M3825 9670 c3 -5 8 -10 11 -10 2 0 4 5 4 10 0 6 -5 10 -11 10 -5 0
-7 -4 -4 -10z"/>
<path d="M3750 9660 c-11 -8 -7 -9 15 -4 37 8 45 14 19 14 -10 0 -26 -5 -34
-10z"/>
<path d="M3888 9653 c7 -3 16 -2 19 1 4 3 -2 6 -13 5 -11 0 -14 -3 -6 -6z"/>
<path d="M3606 9622 c-56 -16 -88 -42 -51 -42 9 0 13 4 10 10 -8 13 37 23 80
18 25 -3 32 -1 24 8 -7 8 -6 14 3 17 27 11 -9 5 -66 -11z"/>
<path d="M3603 9593 c9 -2 23 -2 30 0 6 3 -1 5 -18 5 -16 0 -22 -2 -12 -5z"/>
<path d="M3430 9573 c-25 -9 -48 -21 -52 -27 -4 -6 -10 -8 -13 -4 -11 10 -270
-85 -440 -162 -191 -86 -245 -114 -233 -123 9 -6 7 -7 -5 -3 -17 6 -55 -12
-219 -103 -27 -14 -48 -29 -48 -33 0 -5 -5 -8 -11 -8 -18 0 -179 -102 -174
-111 3 -4 0 -11 -6 -15 -8 -4 -9 -3 -5 4 13 22 -5 12 -102 -55 -244 -168 -620
-482 -605 -506 3 -5 2 -7 -4 -4 -12 7 -217 -200 -329 -333 -233 -276 -439
-572 -577 -830 -22 -41 -53 -99 -68 -128 -173 -320 -355 -834 -433 -1222 -110
-542 -132 -1043 -70 -1580 55 -480 191 -980 386 -1420 52 -116 193 -388 261
-503 161 -268 427 -635 450 -620 6 3 7 1 4 -4 -16 -26 428 -487 583 -604 19
-15 58 -47 85 -73 28 -25 56 -44 63 -41 7 3 10 1 7 -4 -3 -6 6 -18 20 -28 14
-10 56 -41 93 -69 125 -95 280 -194 295 -188 8 3 18 1 22 -5 4 -7 -1 -9 -12
-5 -12 4 -10 0 7 -15 14 -11 31 -19 38 -16 8 3 10 0 6 -7 -5 -8 -2 -9 10 -5 9
4 15 3 12 -2 -8 -13 82 -64 97 -55 6 4 9 3 4 -1 -10 -11 70 -58 85 -49 7 4 8
3 4 -4 -4 -7 53 -40 161 -93 92 -44 179 -87 193 -94 14 -8 49 -23 77 -34 47
-18 54 -19 68 -5 8 8 15 11 15 5 0 -5 -5 -13 -11 -17 -7 -4 14 -17 47 -30 39
-16 61 -21 68 -14 14 14 26 12 20 -3 -6 -17 40 -39 63 -30 11 4 14 3 9 -5 -5
-8 0 -12 12 -12 10 0 34 -8 53 -17 19 -9 48 -17 66 -17 17 0 29 -4 26 -9 -3
-5 4 -3 16 4 22 15 9 31 -17 21 -10 -4 -13 -1 -8 7 5 7 8 127 7 266 -2 234 3
288 24 255 10 -17 63 -12 74 7 8 16 11 14 22 -10 7 -15 15 -27 18 -27 4 0 15
17 26 37 15 27 17 37 7 41 -16 5 -18 2162 -1 2162 6 0 7 6 4 13 -4 6 0 4 9 -6
8 -11 12 -25 10 -32 -3 -7 -1 -16 5 -20 6 -3 11 1 11 10 0 12 5 15 16 11 9 -3
19 -6 24 -6 4 0 10 -9 13 -21 4 -16 11 -19 27 -14 19 6 20 5 8 -14 -10 -16
-10 -23 0 -33 9 -9 12 -8 12 8 0 16 2 17 10 4 8 -13 10 -12 10 3 0 10 5 15 10
12 6 -4 7 -11 4 -17 -4 -7 -2 -8 5 -4 6 4 19 2 27 -5 14 -12 14 -14 -2 -26
-10 -7 -12 -13 -6 -13 7 0 12 -7 12 -15 0 -8 5 -15 10 -15 15 0 12 30 -2 30
-7 0 -5 5 6 11 13 8 25 8 43 0 14 -7 27 -10 30 -8 2 2 -11 10 -29 18 -18 7
-49 22 -68 34 -19 12 -41 20 -49 17 -8 -3 -11 0 -7 6 4 6 -14 23 -41 39 -27
15 -76 47 -111 70 -35 24 -66 43 -68 43 -3 0 -20 11 -38 25 -18 14 -36 25 -40
25 -4 0 -34 18 -66 40 -33 22 -68 44 -77 47 -10 4 -36 19 -57 34 -33 22 -44
25 -63 16 -17 -8 -20 -13 -11 -19 7 -4 8 -8 2 -8 -5 0 -19 7 -30 15 -11 9 -13
13 -4 10 9 -3 24 2 35 11 18 14 18 15 2 10 -10 -3 -15 -2 -12 4 8 13 -96 71
-115 64 -8 -3 -11 -2 -7 2 10 10 -112 86 -125 78 -6 -4 -8 -2 -5 3 7 11 -82
90 -96 85 -5 -1 -5 2 -2 8 4 6 0 19 -8 28 -27 30 -65 116 -72 164 -9 61 9 143
41 185 14 18 22 38 18 45 -4 7 -3 8 4 4 7 -4 27 4 44 18 74 56 222 60 358 10
41 -15 85 -27 97 -26 13 1 22 -3 20 -9 -2 -12 271 -122 284 -113 5 3 9 0 9 -5
0 -6 5 -11 11 -11 5 0 8 4 4 9 -3 5 3 12 12 15 10 2 2 3 -17 1 -19 -2 -44 1
-55 6 -16 8 -15 8 7 4 l28 -5 -3 225 c-1 141 -6 225 -12 226 -5 0 -1 4 10 9
15 7 9 9 -25 9 -33 1 -41 -2 -30 -9 11 -7 11 -10 2 -10 -9 0 -10 -5 -3 -18 6
-10 9 -74 7 -143 -2 -68 -4 -158 -5 -201 -1 -69 -3 -76 -20 -71 -13 3 -17 13
-16 36 4 48 4 49 15 42 7 -4 10 55 10 170 l0 175 -27 -5 -28 -5 30 15 30 16
-45 -5 c-40 -5 -42 -4 -20 7 17 8 90 12 223 12 108 0 197 3 197 8 0 4 -97 7
-216 7 -141 0 -213 -3 -209 -10 3 -5 1 -10 -5 -10 -7 0 -10 7 -6 15 6 17 -29
39 -46 29 -7 -4 -8 -3 -4 4 4 7 0 22 -9 34 -15 22 -15 22 -9 -12 4 -20 3 -32
-2 -27 -5 5 -9 27 -10 50 -2 152 -5 187 -13 187 -5 0 -12 -12 -14 -27 -4 -26
-4 -26 -6 5 -1 22 3 32 14 32 8 0 15 5 15 11 0 6 -9 8 -21 4 -15 -5 -19 -4
-15 4 4 6 1 11 -7 11 -8 0 -20 7 -27 15 -10 12 -7 12 19 -1 17 -9 37 -14 44
-11 6 2 -15 14 -48 26 -33 12 -79 32 -102 43 l-43 21 -27 -29 c-15 -16 -26
-33 -25 -37 1 -5 -1 -6 -6 -3 -12 7 -54 -38 -45 -48 5 -4 4 -6 -2 -5 -5 2 -21
-3 -34 -10 -17 -9 -20 -15 -11 -21 7 -4 -20 -7 -60 -6 l-71 3 -169 168 c-145
145 -169 173 -172 204 -8 61 8 93 85 171 l74 74 -33 70 c-19 39 -37 85 -40
102 l-6 32 -113 4 c-127 3 -152 14 -187 78 -17 32 -19 55 -16 260 3 198 5 228
21 252 31 44 74 58 186 58 100 0 102 0 112 26 5 15 7 29 5 32 -3 2 2 11 10 20
9 8 13 24 10 34 -2 11 -2 17 1 14 4 -4 16 13 28 36 l22 43 -77 81 c-92 96
-104 129 -70 200 12 24 40 59 62 78 22 19 37 40 33 46 -3 6 -3 9 2 8 16 -6 86
60 78 73 -5 7 -4 10 2 6 11 -7 86 66 78 76 -3 4 -2 5 1 2 4 -2 20 7 36 20 33
28 84 40 134 32 20 -3 32 -2 29 3 -3 6 1 7 10 3 11 -3 13 -8 6 -12 -6 -4 14
-31 48 -65 33 -32 64 -55 70 -52 7 4 9 1 5 -7 -8 -22 13 -30 38 -14 13 8 51
25 85 38 41 15 58 26 50 32 -7 5 0 6 18 3 19 -4 25 -3 16 2 -9 7 -10 12 -2 16
7 4 11 42 11 94 0 125 26 167 125 203 27 10 28 12 10 19 -19 8 -19 9 3 9 18 1
22 7 22 36 0 19 -4 35 -10 35 -5 0 -10 5 -10 11 0 5 5 7 10 4 7 -4 10 278 10
839 l0 846 -38 0 c-41 0 -74 32 -53 53 8 8 11 6 11 -6 0 -13 9 -17 40 -17 39
0 40 1 40 35 0 34 -1 35 -40 35 -22 0 -40 -4 -40 -10 0 -5 -4 -10 -10 -10 -14
0 -13 455 1 481 7 15 7 24 -2 35 -8 10 -8 14 0 14 18 0 12 20 -6 21 -10 1 0 7
22 14 22 7 51 11 65 9 22 -4 23 -3 5 5 -26 13 -32 12 -85 -6z m-70 -53 c13 -9
13 -10 0 -10 -8 0 -22 5 -30 10 -13 9 -13 10 0 10 8 0 22 -5 30 -10z m18 -274
c2 -166 -1 -246 -8 -246 -7 0 -10 80 -10 240 0 226 -1 240 -19 250 -11 5 -28
10 -38 9 -16 0 -16 -1 2 -9 16 -8 14 -9 -10 -5 -16 2 -32 4 -35 4 -3 1 6 7 20
14 20 10 32 10 60 1 l35 -12 3 -246z m47 254 c3 -5 -1 -10 -9 -10 -9 0 -16 5
-16 10 0 6 4 10 9 10 6 0 13 -4 16 -10z m-225 -29 c0 -10 -109 -46 -117 -38
-3 4 15 11 41 18 25 6 49 15 52 20 7 12 24 12 24 0z m-10 -51 c11 -8 8 -9 -12
-4 -16 3 -36 3 -45 -1 -26 -11 -77 -15 -67 -5 21 19 101 25 124 10z m-177 -25
c-3 -9 -8 -14 -10 -11 -3 3 -2 9 2 15 9 16 15 13 8 -4z m154 9 c-3 -3 -12 -4
-19 -1 -8 3 -5 6 6 6 11 1 17 -2 13 -5z m33 -55 c0 -38 -24 -35 -28 4 -2 19 1
27 12 27 11 0 16 -10 16 -31z m-258 12 c-8 -4 -13 -12 -13 -17 1 -5 -13 -9
-29 -9 -38 -1 -38 3 3 20 35 16 60 19 39 6z m258 -206 l0 -155 40 0 c29 0 40
-4 40 -15 0 -11 -11 -15 -41 -15 -40 0 -41 -1 -37 -30 4 -24 1 -30 -11 -28
-14 3 -16 30 -19 201 -2 171 0 197 13 197 13 0 15 -23 15 -155z m-460 121 c0
-2 -7 -7 -16 -10 -8 -3 -12 -2 -9 4 6 10 25 14 25 6z m-150 -80 c0 -2 -7 -7
-16 -10 -8 -3 -12 -2 -9 4 6 10 25 14 25 6z m45 -26 c-3 -5 -12 -10 -18 -10
-7 0 -6 4 3 10 19 12 23 12 15 0z m-450 -238 c-3 -3 -11 0 -18 7 -9 10 -8 11
6 5 10 -3 15 -9 12 -12z m1290 -1702 c3 -5 1 -10 -4 -10 -6 0 -11 5 -11 10 0
6 2 10 4 10 3 0 8 -4 11 -10z m-65 -76 c0 -10 -28 -34 -39 -34 -6 0 -11 5 -11
10 0 6 7 10 15 10 8 0 15 5 15 10 0 6 5 10 10 10 6 0 10 -3 10 -6z m53 -1 c-7
-2 -19 -2 -25 0 -7 3 -2 5 12 5 14 0 19 -2 13 -5z m4 -19 c-3 -3 -12 -4 -19
-1 -8 3 -5 6 6 6 11 1 17 -2 13 -5z m-37 -14 c0 -5 -4 -10 -9 -10 -5 0 -18
-14 -29 -31 -19 -31 -20 -31 -27 -10 -4 13 -4 25 -1 28 3 4 6 -1 6 -11 0 -9 5
-14 10 -11 6 4 7 11 4 17 -4 6 1 17 11 25 22 16 35 17 35 3z m-80 -204 c0 -3
-4 -8 -10 -11 -5 -3 -10 -1 -10 4 0 6 5 11 10 11 6 0 10 -2 10 -4z m-443 -12
c-3 -3 -12 -4 -19 -1 -8 3 -5 6 6 6 11 1 17 -2 13 -5z m83 -4 c0 -5 -10 -10
-22 -9 -22 0 -22 1 -3 9 11 5 21 9 23 9 1 1 2 -3 2 -9z m344 -71 c-31 -12 -39
-10 -19 5 11 8 24 12 29 8 5 -3 1 -9 -10 -13z m-251 -3 c-4 -6 1 -6 13 -2 14
5 16 4 7 -5 -9 -9 -17 -8 -34 4 -21 16 -21 16 -1 14 11 0 18 -5 15 -11z m195
-11 c2 -1 -8 -5 -21 -7 -13 -3 -32 1 -42 8 -15 11 -12 12 21 7 22 -3 40 -7 42
-8z m-13 -25 c-3 -5 -12 -10 -18 -10 -7 0 -6 4 3 10 19 12 23 12 15 0z m-85
-45 c-7 -9 -15 -13 -19 -10 -3 3 1 10 9 15 21 14 24 12 10 -5z m-525 -454 c3
-5 2 -12 -3 -15 -5 -3 -9 1 -9 9 0 17 3 19 12 6z m575 -1603 c8 -3 -4 -5 -28
-5 -23 0 -45 3 -47 7 -3 5 5 6 17 3 23 -5 23 -5 3 11 -19 16 -19 16 10 3 17
-8 37 -16 45 -19z m-489 5 c13 -16 12 -17 -3 -4 -10 7 -18 15 -18 17 0 8 8 3
21 -13z m375 -82 c-4 -6 -13 -11 -19 -11 -8 0 -7 3 2 9 8 5 10 14 6 22 -6 11
-5 11 5 2 7 -6 9 -16 6 -22z m298 -300 c6 0 11 -7 12 -16 2 -11 -7 -15 -32
-15 -34 0 -39 6 -28 34 4 11 11 13 22 7 10 -5 21 -9 26 -10z m96 -61 c0 -5 -2
-10 -4 -10 -3 0 -8 5 -11 10 -3 6 -1 10 4 10 6 0 11 -4 11 -10z m-343 -222
c-1 -4 7 -14 18 -23 14 -11 8 -9 -19 4 -21 11 -45 17 -55 14 -10 -3 -12 -2 -4
4 13 10 62 11 60 1z m43 2 c-12 -8 -10 -10 10 -11 14 0 19 -3 12 -6 -18 -7
-44 5 -37 17 3 5 12 10 18 10 7 0 6 -4 -3 -10z m34 -39 c4 -5 -3 -7 -14 -4
-23 6 -26 13 -6 13 8 0 17 -4 20 -9z m-476 -56 c-3 -3 -9 2 -12 12 -6 14 -5
15 5 6 7 -7 10 -15 7 -18z m585 19 c11 -11 78 -14 72 -4 -4 6 -2 10 3 10 5 0
9 -13 8 -30 0 -16 -2 -30 -4 -30 -13 0 -102 46 -102 52 0 10 14 10 23 2z
m-286 -620 c-3 -3 -12 -4 -19 -1 -8 3 -5 6 6 6 11 1 17 -2 13 -5z m173 -99
c20 -24 6 -28 -15 -5 -10 11 -13 20 -8 20 6 0 16 -7 23 -15z m138 -84 c24 -17
29 -26 20 -32 -7 -4 -9 -11 -5 -15 3 -4 13 -1 22 6 8 7 15 8 15 2 0 -5 -7 -15
-15 -22 -18 -15 -43 7 -54 48 -6 21 -14 27 -32 25 -13 -1 -18 1 -11 3 8 4 5
12 -10 25 l-23 20 30 -18 c17 -9 45 -28 63 -42z m-114 30 c3 -5 -3 -11 -13
-14 -14 -3 -18 -1 -14 9 6 16 19 18 27 5z m216 -94 c0 -1 -11 -2 -24 -2 -14 0
-22 5 -19 12 4 9 10 10 24 2 10 -5 19 -11 19 -12z m54 -48 c-4 -7 0 -9 14 -5
11 4 23 2 27 -3 4 -7 -1 -8 -11 -4 -10 4 -15 2 -11 -3 3 -5 -3 -10 -13 -10
-10 0 -16 6 -15 16 5 21 4 20 11 20 3 0 2 -5 -2 -11z m6 -1118 c0 -865 -2
-1080 -12 -1084 -11 -4 -13 205 -10 1079 1 669 6 1084 12 1084 5 0 9 -411 10
-1079z m165 1029 c3 -5 1 -10 -4 -10 -6 0 -11 5 -11 10 0 6 2 10 4 10 3 0 8
-4 11 -10z m-317 -2042 c-6 -18 -28 -21 -28 -4 0 9 7 16 16 16 9 0 14 -5 12
-12z m-181 -40 c-3 -8 -6 -5 -6 6 -1 11 2 17 5 13 3 -3 4 -12 1 -19z m236 -17
c3 -14 1 -18 -10 -14 -8 3 -19 0 -23 -8 -5 -7 -12 -11 -15 -7 -7 6 25 48 36
48 4 0 9 -9 12 -19z m-133 -1 c0 -5 -7 -10 -15 -10 -8 0 -15 5 -15 10 0 6 7
10 15 10 8 0 15 -4 15 -10z m-110 -171 c0 -124 -3 -160 -12 -157 -10 4 -14 47
-16 161 -2 135 0 157 13 157 13 0 15 -23 15 -161z m179 -145 c0 -186 -4 -254
-12 -254 -7 -1 -1 -7 13 -15 32 -18 25 -18 -25 0 -28 10 -33 14 -17 15 l22 0
0 261 c0 176 3 258 10 254 7 -4 10 -96 9 -261z m-179 -95 c0 -55 -3 -69 -15
-69 -12 0 -15 15 -15 75 0 62 2 73 15 69 11 -5 15 -23 15 -75z m-349 53 c-8
-3 -7 -8 6 -18 16 -13 15 -13 -11 -2 -15 7 -23 14 -17 16 6 2 9 8 6 13 -4 5 2
6 11 2 12 -4 14 -8 5 -11z m100 -64 c0 -10 2 -10 6 0 8 20 83 13 83 -9 0 -5
-12 -3 -26 3 -19 9 -30 9 -44 0 -14 -9 -21 -8 -30 3 -9 11 -9 15 -1 15 6 0 11
-6 12 -12z m89 -34 c0 -9 -28 -3 -46 11 -17 13 -16 14 14 4 17 -6 32 -13 32
-15z m74 -18 c-7 -17 -34 -22 -34 -6 0 6 7 10 15 10 8 0 15 5 15 12 0 6 2 9 5
6 3 -3 3 -13 -1 -22z m162 -28 c14 -14 -37 -17 -68 -4 l-33 14 47 -2 c26 -1
50 -5 54 -8z m-41 -28 c3 -5 -1 -10 -9 -10 -8 0 -18 5 -21 10 -3 6 1 10 9 10
8 0 18 -4 21 -10z"/>
<path d="M2908 9343 c7 -3 16 -2 19 1 4 3 -2 6 -13 5 -11 0 -14 -3 -6 -6z"/>
<path d="M3380 3930 c8 -5 24 -9 35 -9 l20 0 -20 9 c-11 5 -27 9 -35 9 -13 1
-13 0 0 -9z"/>
<path d="M3370 3130 c0 -5 5 -10 11 -10 5 0 7 5 4 10 -3 6 -8 10 -11 10 -2 0
-4 -4 -4 -10z"/>
<path d="M3238 343 c7 -3 16 -2 19 1 4 3 -2 6 -13 5 -11 0 -14 -3 -6 -6z"/>
<path d="M3557 9568 c-16 -12 -17 -37 -15 -258 3 -210 5 -245 18 -245 13 0 15
36 18 250 2 184 6 251 15 257 9 6 8 8 -4 8 -8 0 -23 -6 -32 -12z"/>
<path d="M3618 9573 c7 -3 16 -2 19 1 4 3 -2 6 -13 5 -11 0 -14 -3 -6 -6z"/>
<path d="M3690 9080 c13 -8 15 -127 17 -957 2 -521 3 -951 3 -955 0 -7 27 -5
35 4 4 3 6 410 6 904 0 495 4 922 8 949 l7 50 15 -30 c12 -25 14 -177 17 -945
1 -503 4 -921 7 -929 3 -8 8 -11 11 -8 3 3 5 417 4 921 0 623 3 916 10 916 12
0 13 40 0 60 -6 9 -5 17 3 22 7 4 -26 8 -73 8 -57 0 -80 -3 -70 -10z"/>
<path d="M3880 8165 c0 -603 3 -915 10 -915 7 0 10 312 10 915 0 603 -3 915
-10 915 -7 0 -10 -312 -10 -915z"/>
<path d="M3600 9040 c0 -22 8 -25 30 -10 13 9 13 11 0 20 -22 15 -30 12 -30
-10z"/>
<path d="M3537 8128 c2 -491 3 -910 3 -930 0 -31 4 -38 20 -38 16 0 20 7 20
38 0 20 1 439 3 930 l2 892 -25 0 -25 0 2 -892z"/>
<path d="M3900 7146 c0 -2 7 -6 15 -10 8 -3 15 -1 15 4 0 6 -7 10 -15 10 -8 0
-15 -2 -15 -4z"/>
<path d="M3608 7123 c50 -2 134 -2 185 0 50 1 9 3 -93 3 -102 0 -143 -2 -92
-3z"/>
<path d="M3896 7119 c6 -11 35 -11 51 -1 8 5 -1 8 -22 9 -19 1 -32 -3 -29 -8z"/>
<path d="M3984 7069 c14 -17 26 -40 27 -52 0 -14 3 -17 6 -8 7 18 -24 78 -44
85 -8 4 -3 -8 11 -25z"/>
<path d="M3533 6838 c2 -112 2 -112 -28 -143 -19 -21 -45 -35 -70 -39 -22 -4
-64 -19 -93 -32 -29 -13 -57 -24 -63 -24 -6 0 -7 -5 -3 -12 4 -7 3 -8 -4 -4
-6 4 -28 -4 -50 -17 -21 -14 -58 -26 -84 -28 -26 -2 -44 -2 -42 0 5 6 -147
161 -157 161 -11 0 -79 -63 -79 -72 0 -5 5 -6 12 -2 7 4 8 3 4 -5 -4 -6 -12
-9 -17 -6 -5 4 -41 -26 -80 -64 l-72 -71 82 -82 c45 -46 84 -94 88 -107 4 -15
-6 -47 -28 -94 -19 -39 -33 -74 -32 -79 2 -4 -1 -8 -6 -8 -9 0 -32 -59 -51
-133 -21 -77 -41 -87 -181 -87 l-119 0 0 -165 0 -165 121 0 c66 0 129 -4 139
-10 11 -6 29 -43 46 -92 34 -105 84 -219 94 -213 3 2 7 -1 8 -8 1 -7 5 -28 8
-48 5 -29 1 -41 -20 -66 -14 -17 -22 -33 -19 -37 4 -4 0 -4 -8 -1 -16 6 -39
-14 -43 -37 -3 -22 -17 -39 -27 -32 -6 3 -19 -4 -30 -17 l-20 -23 115 -115
115 -115 89 87 c49 48 97 87 106 87 9 0 58 -20 109 -44 50 -25 126 -54 167
-66 111 -33 120 -45 121 -183 1 -62 4 -102 6 -89 5 27 23 29 23 2 0 -10 -8
-24 -17 -29 -13 -7 24 -10 127 -10 80 0 138 3 130 6 -8 3 -21 12 -27 21 -12
14 -13 14 -13 0 0 -14 -14 -16 -98 -15 l-98 2 5 30 6 30 5 -30 c9 -57 15 139
6 209 -7 49 -6 74 2 87 20 31 14 47 -19 54 -22 5 -34 3 -40 -6 -6 -10 -9 -8
-9 9 0 18 5 23 23 22 48 -4 39 2 -23 16 -39 8 -68 10 -74 4 -5 -5 0 -7 15 -3
13 3 21 2 16 -2 -14 -15 -87 -14 -87 1 0 8 -6 11 -15 8 -8 -3 -24 1 -37 10
-24 17 -14 22 12 6 9 -6 17 -5 21 2 4 7 13 7 27 -1 11 -6 27 -11 34 -11 16 1
-34 29 -59 33 -10 2 -34 13 -53 25 -40 25 -51 27 -48 10 3 -13 -59 -20 -67 -7
-3 4 4 13 16 19 15 8 19 9 15 1 -4 -6 -3 -11 3 -11 5 0 12 4 16 9 7 12 -35 42
-48 34 -6 -3 -7 -1 -4 4 4 6 -8 22 -26 36 -17 13 -50 43 -71 65 -22 22 -44 38
-49 35 -6 -3 -7 -1 -3 6 11 17 -12 40 -35 36 -11 -2 -17 0 -14 6 4 5 11 7 16
4 5 -4 9 -2 9 3 0 17 -13 22 -29 9 -14 -10 -14 -10 -3 4 10 13 8 25 -15 65
-15 27 -31 52 -37 56 -5 3 -11 17 -12 30 -2 12 -12 57 -24 98 -53 189 -27 423
65 587 28 51 30 57 13 47 -7 -4 -8 -3 -4 5 4 6 11 9 15 6 5 -2 20 12 33 33 14
20 49 62 78 92 30 30 53 59 51 63 -1 5 3 6 7 3 5 -3 19 3 31 13 12 11 30 25
39 33 10 7 16 12 13 11 -2 -1 -13 3 -24 8 -17 10 -19 9 -14 -10 3 -12 1 -19
-4 -15 -12 7 -11 31 1 39 6 4 16 3 23 -2 7 -4 19 -8 27 -8 18 1 60 24 45 25
-6 0 -17 -6 -25 -12 -12 -11 -12 -10 -1 5 8 10 21 15 32 12 10 -3 35 3 56 14
48 24 142 52 208 60 l50 7 -50 12 c-46 10 -51 10 -67 -8 -17 -21 -48 -27 -48
-10 0 6 8 14 18 17 9 4 20 11 24 17 3 5 28 11 55 12 37 2 42 1 23 -6 -37 -12
-8 -12 52 2 52 11 52 11 23 20 -16 4 -40 6 -52 3 -19 -4 -21 0 -25 44 -2 33 1
47 8 44 13 -5 12 181 -1 230 l-7 27 131 0 130 0 4 -92 3 -93 2 98 2 97 -159 0
-159 0 1 -112z m14 -40 c-2 -24 -4 -5 -4 42 0 47 2 66 4 43 2 -24 2 -62 0 -85z
m20 60 c-2 -13 -4 -3 -4 22 0 25 2 35 4 23 2 -13 2 -33 0 -45z m20 -80 c-2
-13 -4 -3 -4 22 0 25 2 35 4 23 2 -13 2 -33 0 -45z m-21 -44 c-4 -9 -9 -15
-11 -12 -3 3 -3 13 1 22 4 9 9 15 11 12 3 -3 3 -13 -1 -22z m-24 -94 c3 -52
-3 -60 -28 -35 -10 9 -26 13 -42 10 -25 -5 -24 -4 5 10 17 8 34 19 38 25 9 14
-1 13 -36 -6 -17 -8 -33 -13 -36 -11 -2 3 12 13 31 22 20 10 39 21 42 26 13
21 22 6 26 -41z m-109 -14 c4 -10 1 -13 -9 -9 -7 3 -14 9 -14 14 0 14 17 10
23 -5z m-28 -16 c3 -5 -7 -8 -24 -7 -16 1 -27 5 -24 10 6 10 41 9 48 -3z m55
-46 c0 -8 -4 -14 -10 -14 -5 0 -10 9 -10 21 0 11 5 17 10 14 6 -3 10 -13 10
-21z m173 19 c-7 -2 -19 -2 -25 0 -7 3 -2 5 12 5 14 0 19 -2 13 -5z m-402 -50
c-18 -8 -36 -12 -39 -9 -3 4 0 6 7 6 7 0 10 3 8 8 -3 4 9 7 26 8 l32 1 -34
-14z m139 -27 l32 -13 -26 -7 c-15 -4 -39 0 -58 9 -18 8 -25 13 -15 10 11 -3
31 -8 45 -11 l27 -5 -25 15 c-31 19 -22 20 20 2z m50 4 c0 -5 -7 -7 -15 -4 -8
4 -15 8 -15 10 0 2 7 4 15 4 8 0 15 -4 15 -10z m-276 -159 c3 -5 -2 -15 -12
-22 -15 -13 -16 -12 -4 3 10 13 10 17 0 21 -9 4 -9 6 -1 6 6 1 14 -3 17 -8z
m-34 -35 c0 -3 -4 -8 -10 -11 -5 -3 -10 -1 -10 4 0 6 5 11 10 11 6 0 10 -2 10
-4z m-33 -41 c0 -8 -4 -12 -9 -9 -5 3 -6 10 -3 15 9 13 12 11 12 -6z m-324
-378 c3 -8 -1 -14 -8 -14 -7 0 -11 6 -8 14 3 7 6 13 8 13 2 0 5 -6 8 -13z
m115 -622 c-3 -3 -9 2 -12 12 -6 14 -5 15 5 6 7 -7 10 -15 7 -18z m279 -180
c0 -8 -4 -12 -9 -9 -5 3 -6 10 -3 15 9 13 12 11 12 -6z m-267 -1 c0 -8 -19
-13 -24 -6 -3 5 1 9 9 9 8 0 15 -2 15 -3z m305 -12 c-3 -3 -11 0 -18 7 -9 10
-8 11 6 5 10 -3 15 -9 12 -12z m162 -158 c-3 -3 -12 -4 -19 -1 -8 3 -5 6 6 6
11 1 17 -2 13 -5z m-280 -22 c9 -6 8 -11 -5 -19 -15 -9 -18 -7 -19 8 -2 20 5
23 24 11z m285 1 c-10 -4 -10 -8 0 -21 11 -13 10 -15 -5 -9 -10 4 -23 7 -29 7
-6 0 -6 6 2 15 7 8 20 15 29 14 11 0 12 -2 3 -6z m-87 -13 c8 -13 -5 -13 -25
0 -13 8 -13 10 2 10 9 0 20 -4 23 -10z m249 -41 c19 -15 26 -30 26 -54 0 -18
4 -35 10 -37 6 -2 6 -14 1 -33 l-9 -30 -1 32 c-1 17 -6 33 -12 35 -5 2 -11 10
-12 18 -5 32 -18 41 -50 35 -18 -4 -43 -2 -57 3 -19 7 -8 9 43 7 37 -1 67 -1
67 1 0 1 -7 10 -16 18 -14 14 -17 14 -30 1 -21 -21 -34 -19 -34 5 0 27 39 27
74 -1z m-161 4 c-7 -2 -19 -2 -25 0 -7 3 -2 5 12 5 14 0 19 -2 13 -5z m-458
-15 c5 4 5 1 1 -6 -6 -10 -11 -10 -22 -1 -8 6 -14 14 -14 16 0 3 6 0 13 -6 8
-6 18 -7 22 -3z m95 -22 c0 -2 -6 -9 -14 -15 -11 -9 -16 -9 -22 0 -4 7 -3 9 4
5 6 -3 13 -2 17 4 6 10 15 14 15 6z m583 -137 c-6 -6 -7 3 -4 23 4 28 6 29 9
9 2 -13 0 -27 -5 -32z m-26 -61 c-2 -13 -4 -3 -4 22 0 25 2 35 4 23 2 -13 2
-33 0 -45z"/>
<path d="M3717 6923 c-4 -3 -7 -79 -7 -169 0 -120 -3 -164 -12 -167 -7 -3 3
-6 22 -6 26 -1 31 2 20 9 -12 8 -12 10 -1 10 11 0 13 13 8 63 -3 34 -3 108 1
165 6 89 5 102 -9 102 -9 0 -19 -3 -22 -7z"/>
<path d="M3800 6755 c0 -164 0 -165 -22 -166 -22 -1 -22 -1 2 -9 14 -4 34 -8
45 -8 16 0 15 2 -5 8 l-25 8 25 2 c14 1 19 4 13 7 -10 3 -13 46 -13 164 0 99
-4 159 -10 159 -6 0 -10 -62 -10 -165z"/>
<path d="M4398 6883 c7 -3 16 -2 19 1 4 3 -2 6 -13 5 -11 0 -14 -3 -6 -6z"/>
<path d="M4480 6880 c8 -5 20 -10 25 -10 6 0 3 5 -5 10 -8 5 -19 10 -25 10 -5
0 -3 -5 5 -10z"/>
<path d="M4545 6840 c10 -11 20 -20 23 -20 3 0 -3 9 -13 20 -10 11 -20 20 -23
20 -3 0 3 -9 13 -20z"/>
<path d="M4090 6810 c8 -5 22 -9 30 -9 10 0 8 3 -5 9 -27 12 -43 12 -25 0z"/>
<path d="M4035 6800 c27 -12 43 -12 25 0 -8 5 -22 9 -30 9 -10 0 -8 -3 5 -9z"/>
<path d="M4264 6778 l-29 -33 33 29 c17 17 32 31 32 33 0 8 -8 1 -36 -29z"/>
<path d="M4080 6792 c0 -8 61 -34 67 -29 1 2 -13 11 -32 20 -19 9 -35 13 -35
9z"/>
<path d="M4160 6756 c0 -2 7 -7 16 -10 8 -3 12 -2 9 4 -6 10 -25 14 -25 6z"/>
<path d="M3850 6701 c0 -10 39 -45 44 -40 3 2 -6 14 -20 26 -13 12 -24 18 -24
14z"/>
<path d="M4426 6692 c-2 -4 4 -8 14 -8 10 0 16 4 14 8 -3 4 -9 8 -14 8 -5 0
-11 -4 -14 -8z"/>
<path d="M3930 6650 c12 -8 10 -10 -9 -10 -13 0 -22 -3 -19 -6 3 -3 22 -2 42
2 42 7 42 9 1 18 -22 5 -26 4 -15 -4z"/>
<path d="M4386 6652 c-2 -4 -1 -14 4 -22 7 -11 9 -9 7 8 -1 24 -3 26 -11 14z"/>
<path d="M4480 6656 c0 -2 8 -10 18 -17 15 -13 16 -12 3 4 -13 16 -21 21 -21
13z"/>
<path d="M4349 6613 c-13 -16 -12 -17 4 -4 9 7 17 15 17 17 0 8 -8 3 -21 -13z"/>
<path d="M3888 6613 c12 -2 30 -2 40 0 9 3 -1 5 -23 4 -22 0 -30 -2 -17 -4z"/>
<path d="M4071 6606 c2 -2 15 -9 29 -15 24 -11 24 -11 6 3 -16 13 -49 24 -35
12z"/>
<path d="M4007 6569 c4 -13 8 -18 11 -10 2 7 -1 18 -6 23 -8 8 -9 4 -5 -13z"/>
<path d="M4294 6558 l-19 -23 23 19 c12 11 22 21 22 23 0 8 -8 2 -26 -19z"/>
<path d="M4572 6564 c10 -10 20 -16 22 -13 3 3 -5 11 -17 18 -21 13 -21 12 -5
-5z"/>
<path d="M3633 6553 c1 -1 40 -6 87 -12 47 -6 101 -13 120 -16 26 -3 30 -2 15
5 -11 5 -38 10 -60 11 l-40 2 45 6 c30 5 8 7 -62 6 -58 0 -106 -1 -105 -2z"/>
<path d="M3888 6513 c7 -3 16 -2 19 1 4 3 -2 6 -13 5 -11 0 -14 -3 -6 -6z"/>
<path d="M3935 6500 c28 -12 37 -12 30 0 -3 6 -16 10 -28 9 -21 0 -21 -1 -2
-9z"/>
<path d="M4000 6506 c0 -2 7 -7 16 -10 8 -3 12 -2 9 4 -6 10 -25 14 -25 6z"/>
<path d="M4644 6480 c0 -13 4 -16 10 -10 7 7 7 13 0 20 -6 6 -10 3 -10 -10z"/>
<path d="M4001 6483 c0 -5 26 -20 57 -36 31 -15 48 -20 37 -11 -29 23 -95 56
-94 47z"/>
<path d="M4170 6386 c0 -2 7 -7 16 -10 8 -3 12 -2 9 4 -6 10 -25 14 -25 6z"/>
<path d="M3653 6363 c31 -2 57 -8 57 -13 0 -6 9 -10 20 -10 11 0 20 5 20 10 0
6 4 10 10 10 5 0 7 -7 3 -16 -5 -12 -1 -15 13 -11 10 3 29 8 41 12 12 3 37 0
55 -8 70 -30 91 -38 95 -34 2 3 -27 17 -64 32 -60 25 -82 28 -188 30 -66 1
-94 0 -62 -2z"/>
<path d="M3540 6346 c0 -8 5 -16 12 -18 8 -3 4 -12 -10 -26 -12 -12 -19 -22
-14 -22 4 0 8 -110 10 -245 2 -166 0 -245 -8 -245 -7 0 -10 81 -10 245 0 166
-3 245 -11 245 -5 0 -8 4 -4 9 3 5 -3 11 -12 13 -15 3 -14 5 5 10 12 3 20 2
16 -3 -3 -5 0 -9 5 -9 6 0 11 7 11 15 0 18 3 17 -38 6 -41 -12 -41 -5 1 14 24
11 26 13 7 9 -44 -10 -164 -72 -200 -104 -19 -17 -28 -28 -20 -24 8 5 5 -4 -7
-20 -17 -21 -20 -33 -13 -46 7 -13 6 -21 -2 -26 -7 -4 -8 -3 -4 4 9 16 -7 15
-22 0 -9 -9 -15 -9 -23 -1 -8 8 -6 11 7 10 11 -1 19 4 19 13 0 8 2 17 5 20 21
21 31 40 21 40 -18 0 -118 -128 -145 -187 -29 -60 -31 -67 -14 -57 7 4 8 3 4
-5 -4 -6 -11 -9 -16 -6 -8 5 -39 -110 -41 -150 -5 -132 2 -198 28 -281 11 -37
19 -50 26 -42 5 9 6 6 2 -8 -3 -12 2 -31 13 -45 10 -13 23 -37 30 -52 6 -15
19 -30 27 -33 8 -4 13 -10 10 -14 -3 -4 3 -14 12 -21 9 -8 14 -9 11 -4 -3 6 5
11 18 11 23 2 24 1 7 -11 -17 -13 -17 -14 1 -34 10 -11 23 -18 29 -14 5 3 7 1
4 -4 -4 -6 -1 -16 7 -22 10 -8 21 -7 42 4 19 10 23 15 12 15 -22 0 -24 26 -2
34 25 10 27 8 22 -24 -3 -16 -1 -30 3 -30 4 0 7 -9 6 -19 -1 -16 -5 -18 -19
-10 -23 12 -24 20 -1 12 11 -4 14 -3 9 5 -9 14 -33 16 -41 2 -3 -5 6 -17 21
-26 21 -15 29 -15 46 -5 11 7 23 9 26 5 4 -4 1 -9 -5 -11 -21 -8 -15 -22 17
-38 17 -9 30 -13 30 -10 0 2 17 -4 38 -15 36 -19 65 -24 197 -37 48 -5 115 6
205 33 50 15 13 11 -65 -8 -45 -10 -112 -13 -217 -7 -48 2 -50 19 -4 19 19 0
37 4 40 9 7 10 -82 2 -106 -10 -26 -14 -31 8 -6 25 12 9 17 16 10 16 -9 0 -12
33 -12 126 0 77 4 123 10 119 5 -3 7 -51 3 -120 -5 -101 -4 -115 10 -121 9 -3
14 -10 11 -15 -3 -5 4 -9 15 -9 20 0 21 5 19 165 -2 138 0 167 12 175 11 7 11
10 2 10 -7 0 -10 5 -7 10 4 6 15 8 26 5 11 -4 19 -2 19 5 0 6 -10 10 -22 8
-13 -1 -23 2 -23 7 0 5 7 8 17 7 9 -2 19 2 23 8 9 14 -30 8 -67 -10 -26 -12
-29 -30 -7 -30 6 0 7 4 4 10 -3 6 1 7 10 3 12 -4 13 -8 5 -13 -9 -6 -9 -9 1
-12 8 -3 -1 -5 -19 -5 -21 0 -28 3 -20 9 9 5 6 8 -9 8 -12 0 -25 -5 -29 -12
-5 -7 -2 -8 7 -3 8 5 11 5 7 0 -4 -4 -3 -14 3 -22 9 -10 8 -13 -1 -13 -7 0
-10 -7 -6 -15 8 -21 -4 -19 -30 6 -22 21 -62 20 -49 0 3 -5 0 -13 -6 -17 -8
-5 -9 -3 -4 6 6 10 4 11 -11 5 -10 -4 -29 -10 -41 -12 -13 -3 -20 -9 -17 -14
3 -5 -10 -2 -29 7 -19 9 -42 30 -52 47 -17 28 -19 29 -27 11 -7 -15 -7 -14 -3
6 3 18 -10 50 -45 111 -52 90 -61 130 -35 165 8 12 12 24 9 27 -3 3 5 3 18 0
15 -3 19 -2 11 4 -8 6 -1 9 22 9 18 0 32 -3 30 -6 -3 -4 6 -13 19 -19 13 -7
38 -41 56 -76 32 -63 33 -63 56 -48 21 13 24 13 24 1 0 -8 -10 -20 -22 -26
-13 -6 -18 -11 -13 -11 6 -1 53 24 105 55 52 31 116 69 142 83 58 32 63 45 18
47 -32 2 -33 1 -11 -10 l22 -12 -26 -12 c-14 -7 -33 -12 -41 -12 -8 0 -17 -7
-20 -15 -8 -20 -62 -45 -81 -38 -11 4 -14 3 -9 -6 5 -8 1 -14 -13 -18 -12 -3
-18 -10 -14 -17 3 -6 -3 -3 -13 7 -18 17 -18 18 3 38 17 17 24 19 42 10 17 -9
26 -9 43 4 13 8 17 15 10 15 -6 0 -12 8 -12 18 0 19 37 42 68 42 13 0 14 2 4
9 -11 7 -13 56 -9 257 3 137 8 257 12 268 5 11 3 21 -6 27 -22 13 -49 11 -49
-5z m-74 -51 c10 -8 14 -15 7 -15 -6 0 -14 4 -18 10 -4 6 -15 6 -32 -1 -14 -5
-28 -7 -31 -4 -4 4 32 23 49 24 3 1 14 -6 25 -14z m-26 -30 c0 -8 -4 -15 -10
-15 -5 0 -10 7 -10 15 0 8 5 15 10 15 6 0 10 -7 10 -15z m-90 -11 c-8 -8 -23
-20 -34 -25 -15 -7 -13 -3 7 15 31 29 47 35 27 10z m7 -29 c0 -8 -4 -12 -9 -9
-5 3 -6 10 -3 15 9 13 12 11 12 -6z m-163 -129 c-3 -7 -11 -13 -19 -13 -10 0
-11 5 -4 19 11 20 31 15 23 -6z m-13 -49 c-10 -9 -11 -8 -5 6 3 10 9 15 12 12
3 -3 0 -11 -7 -18z m-27 5 c3 -5 -1 -9 -9 -9 -8 0 -12 4 -9 9 3 4 7 8 9 8 2 0
6 -4 9 -8z m-84 -229 c-11 -17 -11 -17 -6 0 3 10 7 28 7 40 2 22 2 22 6 0 2
-12 -1 -30 -7 -40z m76 -68 c-9 -9 -16 -13 -16 -8 0 12 22 34 28 28 2 -2 -3
-11 -12 -20z m184 10 c-7 -9 -15 -13 -17 -11 -7 7 7 26 19 26 6 0 6 -6 -2 -15z
m60 -30 c-10 -13 -9 -15 11 -15 17 0 20 -3 11 -12 -8 -8 -15 -8 -27 2 -20 16
-19 40 1 40 14 0 14 -3 4 -15z m-39 -32 c-8 -15 -10 -15 -11 -2 0 17 10 32 18
25 2 -3 -1 -13 -7 -23z m16 -25 c-3 -8 -6 -5 -6 6 -1 11 2 17 5 13 3 -3 4 -12
1 -19z m-207 -33 c0 -7 -30 -13 -34 -7 -3 4 4 9 15 9 10 1 19 0 19 -2z m38
-66 c19 -30 8 -34 -12 -4 -9 14 -13 25 -9 25 5 0 14 -9 21 -21z m-22 -16 c-7
-7 -26 7 -26 19 0 6 6 6 15 -2 9 -7 13 -15 11 -17z m50 -73 c-1 -22 -4 -40 -8
-40 -6 0 -6 26 1 73 3 22 8 2 7 -33z m49 -50 c3 -5 2 -10 -4 -10 -5 0 -13 5
-16 10 -3 6 -2 10 4 10 5 0 13 -4 16 -10z m195 0 c0 -5 -5 -10 -11 -10 -5 0
-7 5 -4 10 3 6 8 10 11 10 2 0 4 -4 4 -10z m-220 -25 c11 -13 10 -14 -4 -9 -9
3 -16 10 -16 15 0 13 6 11 20 -6z m-60 -16 c0 -6 -4 -7 -10 -4 -5 3 -10 11
-10 16 0 6 5 7 10 4 6 -3 10 -11 10 -16z m310 11 c8 -5 11 -10 5 -10 -5 0 -17
5 -25 10 -8 5 -10 10 -5 10 6 0 17 -5 25 -10z m-93 -6 c-3 -3 -12 -4 -19 -1
-8 3 -5 6 6 6 11 1 17 -2 13 -5z m-223 -27 c4 4 4 -1 0 -10 -3 -10 -7 -17 -8
-15 -1 2 -8 12 -16 23 -14 18 -13 19 1 8 9 -7 19 -10 23 -6z m304 -45 c15 12
16 11 3 -4 -7 -10 -17 -18 -22 -18 -5 0 -9 8 -8 18 0 11 2 12 6 4 4 -10 8 -10
21 0z m-63 -180 c-8 -8 -25 10 -19 20 4 6 9 5 15 -3 4 -7 6 -15 4 -17z m75 -2
c0 -5 -8 -10 -17 -10 -15 0 -16 2 -3 10 19 12 20 12 20 0z"/>
<path d="M4211 6347 c2 -1 13 -9 24 -17 19 -14 19 -14 6 3 -7 9 -18 17 -24 17
-6 0 -8 -1 -6 -3z"/>
<path d="M3808 6313 c6 -2 18 -2 25 0 6 3 1 5 -13 5 -14 0 -19 -2 -12 -5z"/>
<path d="M3858 6313 c7 -3 16 -2 19 1 4 3 -2 6 -13 5 -11 0 -14 -3 -6 -6z"/>
<path d="M3710 6308 c0 -2 -1 -99 -2 -216 -1 -159 2 -216 11 -221 9 -6 8 -11
-4 -21 -8 -7 -19 -10 -22 -6 -4 4 -1 12 7 17 13 9 13 10 0 6 -18 -5 -19 -73
-1 -69 23 5 122 65 116 70 -3 3 -11 0 -17 -6 -7 -7 -20 -12 -30 -12 -10 0 -18
-4 -18 -10 0 -5 -7 -10 -15 -10 -8 0 -15 -4 -15 -10 0 -5 -6 -10 -12 -10 -7 0
0 12 16 26 l28 25 2 224 1 225 -22 0 c-13 0 -23 -1 -23 -2z"/>
<path d="M3880 6290 c8 -5 20 -10 25 -10 6 0 3 5 -5 10 -8 5 -19 10 -25 10 -5
0 -3 -5 5 -10z"/>
<path d="M3993 6289 c9 -6 14 -15 11 -21 -5 -7 -2 -8 5 -4 7 5 21 0 32 -10 10
-9 21 -15 24 -12 6 5 -70 58 -82 58 -5 0 0 -5 10 -11z"/>
<path d="M3800 6086 c0 -191 1 -204 19 -209 14 -3 81 27 81 37 0 1 -11 2 -24
1 -26 0 -49 -15 -25 -15 11 0 11 -2 -1 -10 -21 -13 -28 45 -29 232 -1 130 1
148 17 157 14 9 13 10 -10 11 l-28 0 0 -204z"/>
<path d="M4294 6268 c10 -16 19 -28 20 -28 0 0 2 12 2 28 1 15 -1 21 -3 14 -4
-10 -8 -10 -21 0 -12 10 -12 7 2 -14z"/>
<path d="M3880 6155 c0 -70 4 -115 10 -115 6 0 10 45 10 115 0 70 -4 115 -10
115 -6 0 -10 -45 -10 -115z"/>
<path d="M4076 6224 c-3 -9 -2 -12 5 -9 6 4 20 -1 32 -11 18 -16 18 -14 -2 9
-29 32 -27 31 -35 11z"/>
<path d="M4160 6163 c0 -6 8 -17 18 -24 16 -13 16 -13 2 6 -8 11 -16 22 -17
24 -2 2 -3 0 -3 -6z"/>
<path d="M4200 6115 c0 -5 5 -17 10 -25 5 -8 10 -10 10 -5 0 6 -5 17 -10 25
-5 8 -10 11 -10 5z"/>
<path d="M4140 6046 c0 -2 11 -6 25 -8 14 -3 25 -1 25 3 0 5 -11 9 -25 9 -14
0 -25 -2 -25 -4z"/>
<path d="M4250 6030 c6 -11 13 -20 16 -20 2 0 0 9 -6 20 -6 11 -13 20 -16 20
-2 0 0 -9 6 -20z"/>
<path d="M4007 6012 c4 -10 9 -10 22 0 9 7 17 13 19 14 2 1 -8 1 -21 0 -15 0
-23 -6 -20 -14z"/>
<path d="M4043 6004 c-24 -14 -43 -28 -43 -31 0 -4 85 42 99 53 16 14 -22 -1
-56 -22z"/>
<path d="M4220 6015 c0 -5 5 -17 10 -25 5 -8 10 -10 10 -5 0 6 -5 17 -10 25
-5 8 -10 11 -10 5z"/>
<path d="M3843 5945 c0 -7 6 -11 14 -8 7 3 13 6 13 8 0 2 -6 5 -13 8 -8 3 -14
-1 -14 -8z"/>
<path d="M3889 5952 c9 -7 10 -11 2 -15 -7 -4 -8 -5 -1 -4 16 3 14 21 -2 25
-10 3 -10 2 1 -6z"/>
<path d="M3939 5951 c11 -7 9 -10 -8 -16 -13 -4 -20 -9 -18 -12 3 -2 15 0 26
7 22 11 20 30 -2 30 -8 0 -7 -3 2 -9z"/>
<path d="M4223 5921 c-9 -15 -9 -20 0 -24 7 -3 13 5 13 19 2 29 2 29 -13 5z"/>
<path d="M4491 5864 c0 -11 3 -14 6 -6 3 7 2 16 -1 19 -3 4 -6 -2 -5 -13z"/>
<path d="M4139 5853 c-13 -16 -12 -17 4 -4 9 7 17 15 17 17 0 8 -8 3 -21 -13z"/>
<path d="M4060 5810 c-9 -6 -10 -10 -3 -10 6 0 15 5 18 10 8 12 4 12 -15 0z"/>
<path d="M4501 5784 c0 -11 3 -14 6 -6 3 7 2 16 -1 19 -3 4 -6 -2 -5 -13z"/>
<path d="M4010 5780 c-13 -8 -13 -10 2 -10 9 0 20 5 23 10 8 13 -5 13 -25 0z"/>
<path d="M3544 5766 c-10 -8 -15 -18 -11 -22 4 -5 11 -4 15 2 4 6 23 15 42 21
l35 11 -31 1 c-16 1 -39 -5 -50 -13z"/>
<path d="M3944 5744 c-18 -14 -18 -15 4 -4 12 6 22 13 22 15 0 8 -5 6 -26 -11z"/>
<path d="M3900 5720 c-9 -6 -10 -10 -3 -10 6 0 15 5 18 10 8 12 4 12 -15 0z"/>
<path d="M4008 5723 c7 -3 16 -2 19 1 4 3 -2 6 -13 5 -11 0 -14 -3 -6 -6z"/>
<path d="M3445 5701 c-3 -5 0 -13 6 -17 7 -4 9 -3 5 4 -3 5 0 13 6 15 9 4 10
6 1 6 -6 1 -14 -3 -18 -8z"/>
<path d="M3827 5676 c-17 -13 -16 -14 2 -19 14 -3 18 -1 14 9 -6 17 8 18 27 2
12 -11 12 -10 1 5 -16 20 -20 21 -44 3z"/>
<path d="M3730 5619 c-19 -16 -21 -19 -6 -15 11 4 23 2 26 -5 4 -6 8 1 8 15 0
14 -1 26 -2 26 0 0 -12 -10 -26 -21z"/>
<path d="M3800 5388 c0 -154 4 -248 9 -242 5 5 10 110 11 234 3 263 3 260 -10
260 -6 0 -10 -91 -10 -252z"/>
<path d="M3880 5479 c0 -104 3 -158 10 -154 6 4 10 68 10 161 0 96 -4 154 -10
154 -6 0 -10 -60 -10 -161z"/>
<path d="M3660 5579 c-19 -11 -27 -18 -18 -15 9 3 34 7 55 10 30 4 33 4 13 -3
-14 -5 -20 -9 -14 -10 8 -1 11 -59 10 -201 -1 -192 0 -199 19 -203 11 -2 -2
-5 -30 -7 -49 -2 -49 -2 -18 -12 17 -6 42 -8 55 -5 l23 6 -2 198 c-2 109 -4
206 -7 216 -2 9 1 17 7 17 14 1 -10 15 -38 23 -11 4 -35 -3 -55 -14z"/>
<path d="M3656 5544 c-8 -22 -8 -24 7 -24 7 0 13 9 13 20 0 24 -11 26 -20 4z"/>
<path d="M4296 5547 c3 -10 9 -15 12 -12 3 3 0 11 -7 18 -10 9 -11 8 -5 -6z"/>
<path d="M3487 5464 c3 -7 9 -14 14 -14 14 0 10 17 -5 23 -10 4 -13 1 -9 -9z"/>
<path d="M4136 5280 c-27 -27 -52 -47 -56 -45 -3 2 -12 0 -19 -4 -10 -6 -9
-10 3 -14 10 -4 36 14 76 53 34 33 57 60 53 60 -4 0 -30 -23 -57 -50z"/>
<path d="M4363 5278 c-15 -20 -25 -38 -20 -38 3 0 12 11 21 25 17 26 16 35 -1
13z"/>
<path d="M4376 5253 c-6 -14 -5 -15 5 -6 7 7 10 15 7 18 -3 3 -9 -2 -12 -12z"/>
<path d="M4003 5225 c0 -8 4 -12 9 -9 16 10 30 -7 17 -22 -6 -7 -15 -12 -18
-9 -4 2 -8 -2 -8 -10 0 -10 8 -9 30 7 30 21 29 23 -14 48 -11 6 -16 5 -16 -5z"/>
<path d="M4294 5188 l-19 -23 23 19 c12 11 22 21 22 23 0 8 -8 2 -26 -19z"/>
<path d="M4491 5184 c0 -11 3 -14 6 -6 3 7 2 16 -1 19 -3 4 -6 -2 -5 -13z"/>
<path d="M3922 5144 c10 -10 20 -15 24 -12 3 4 -5 12 -18 18 -22 12 -22 12 -6
-6z"/>
<path d="M3868 5143 c7 -3 16 -2 19 1 4 3 -2 6 -13 5 -11 0 -14 -3 -6 -6z"/>
<path d="M3820 5130 c-23 -7 -23 -8 -3 -9 12 -1 25 4 28 9 3 6 5 10 3 9 -2 -1
-14 -5 -28 -9z"/>
<path d="M3735 5120 c-28 -7 -28 -8 -5 -9 14 0 32 4 40 9 17 11 8 11 -35 0z"/>
<path d="M4221 5116 c-9 -11 -9 -16 1 -22 7 -4 10 -4 6 1 -4 4 -3 14 3 22 6 7
9 13 6 13 -2 0 -10 -6 -16 -14z"/>
<path d="M4520 5115 c6 -8 9 -18 7 -22 -3 -5 3 -9 13 -9 18 0 18 2 -2 23 -24
25 -38 32 -18 8z"/>
<path d="M4100 5030 c-25 -16 -40 -30 -34 -30 5 0 15 5 22 12 7 7 24 12 39 13
17 0 27 6 29 18 3 22 -3 21 -56 -13z"/>
<path d="M4036 4991 c-3 -5 -22 -12 -42 -16 -20 -3 -34 -9 -31 -11 8 -8 87 16
87 26 0 12 -7 13 -14 1z"/>
<path d="M3867 4934 c-3 -3 -65 -10 -139 -14 l-133 -8 130 3 c72 1 141 7 155
13 15 6 19 11 9 11 -9 1 -18 -2 -22 -5z"/>
<path d="M3806 4893 c-11 -11 -6 -23 9 -23 8 0 15 4 15 9 0 13 -16 22 -24 14z"/>
<path d="M3643 4883 c9 -2 23 -2 30 0 6 3 -1 5 -18 5 -16 0 -22 -2 -12 -5z"/>
<path d="M3718 4883 c6 -2 18 -2 25 0 6 3 1 5 -13 5 -14 0 -19 -2 -12 -5z"/>
<path d="M4103 4870 c-34 -14 -28 -21 7 -9 17 6 30 13 30 15 0 6 -12 4 -37 -6z"/>
<path d="M3707 4714 c2 -146 10 -181 35 -156 7 7 11 61 12 157 l1 145 -25 0
-25 0 2 -146z"/>
<path d="M3800 4700 c0 -93 4 -150 10 -150 6 0 10 51 10 134 0 74 3 141 6 150
4 11 1 16 -10 16 -14 0 -16 -19 -16 -150z"/>
<path d="M4010 4830 c-18 -12 -2 -12 25 0 13 6 15 9 5 9 -8 0 -22 -4 -30 -9z"/>
<path d="M3885 4793 c-36 -19 -31 -23 13 -8 64 21 68 24 40 22 -15 -1 -39 -7
-53 -14z"/>
<path d="M4222 4704 c-7 -8 -8 -14 -3 -14 10 0 25 19 20 25 -2 1 -10 -3 -17
-11z"/>
<path d="M4156 4702 c-3 -4 4 -9 15 -9 23 -2 25 3 4 10 -8 4 -16 3 -19 -1z"/>
<path d="M4250 4696 c0 -2 8 -10 18 -17 15 -13 16 -12 3 4 -13 16 -21 21 -21
13z"/>
<path d="M3844 4600 c0 -52 1 -74 3 -47 2 26 2 68 0 95 -2 26 -3 4 -3 -48z"/>
<path d="M4310 4636 c0 -2 8 -10 18 -17 15 -13 16 -12 3 4 -13 16 -21 21 -21
13z"/>
<path d="M4539 4613 c-13 -16 -12 -17 4 -4 16 13 21 21 13 21 -2 0 -10 -8 -17
-17z"/>
<path d="M4013 4446 c4 -10 -1 -25 -13 -38 -22 -24 -25 -34 -10 -43 5 -3 7 0
5 8 -3 7 3 22 15 32 22 20 26 40 8 51 -8 5 -9 2 -5 -10z"/>
<path d="M4020 4380 c-8 -5 -12 -12 -9 -15 4 -3 12 1 19 10 14 17 11 19 -10 5z"/>
<path d="M3935 4350 c-19 -12 -24 -20 -14 -20 9 0 24 9 34 20 23 25 18 25 -20
0z"/>
<path d="M3708 4313 c12 -2 30 -2 40 0 9 3 -1 5 -23 4 -22 0 -30 -2 -17 -4z"/>
<path d="M3848 4303 c7 -3 16 -2 19 1 4 3 -2 6 -13 5 -11 0 -14 -3 -6 -6z"/>
<path d="M3723 4293 c9 -2 23 -2 30 0 6 3 -1 5 -18 5 -16 0 -22 -2 -12 -5z"/>
<path d="M3808 4293 c7 -3 16 -2 19 1 4 3 -2 6 -13 5 -11 0 -14 -3 -6 -6z"/>
<path d="M3888 4293 c7 -3 16 -2 19 1 4 3 -2 6 -13 5 -11 0 -14 -3 -6 -6z"/>
<path d="M3705 4040 c0 -236 0 -239 21 -238 11 1 21 7 22 13 1 5 3 112 4 238
l3 227 -25 0 -25 0 0 -240z"/>
<path d="M3800 4081 c0 -123 4 -202 10 -206 6 -4 11 51 12 157 1 90 2 182 2
206 1 28 -3 42 -11 42 -10 0 -13 -45 -13 -199z"/>
<path d="M3880 4259 c0 -11 5 -17 10 -14 6 3 10 13 10 21 0 8 -4 14 -10 14 -5
0 -10 -9 -10 -21z"/>
<path d="M4326 4194 c-5 -14 -4 -15 9 -4 17 14 19 20 6 20 -5 0 -12 -7 -15
-16z"/>
<path d="M3880 4035 c0 -97 4 -155 10 -155 6 0 10 58 10 155 0 97 -4 155 -10
155 -6 0 -10 -58 -10 -155z"/>
<path d="M4291 4134 c0 -11 3 -14 6 -6 3 7 2 16 -1 19 -3 4 -6 -2 -5 -13z"/>
<path d="M4281 4074 c0 -11 3 -14 6 -6 3 7 2 16 -1 19 -3 4 -6 -2 -5 -13z"/>
<path d="M4459 4073 c-13 -16 -12 -17 4 -4 16 13 21 21 13 21 -2 0 -10 -8 -17
-17z"/>
<path d="M4276 4023 c-6 -14 -5 -15 5 -6 7 7 10 15 7 18 -3 3 -9 -2 -12 -12z"/>
<path d="M4608 4013 c12 -2 32 -2 45 0 12 2 2 4 -23 4 -25 0 -35 -2 -22 -4z"/>
<path d="M3606 3871 c-3 -4 11 -8 30 -8 44 -1 52 11 8 14 -18 1 -36 -2 -38 -6z"/>
<path d="M2928 3845 c-51 -28 -56 -103 -12 -174 43 -69 242 -203 295 -197 16
2 26 -2 26 -10 0 -10 -6 -10 -21 -3 -21 10 -21 10 -1 -6 34 -28 53 -36 60 -25
3 5 12 10 18 10 9 0 8 -3 -1 -8 -14 -9 -1 -23 48 -54 23 -14 28 -14 60 2 l36
18 0 -33 c0 -20 -4 -31 -11 -28 -5 3 -5 0 1 -6 17 -19 177 -111 192 -111 7 0
10 -4 7 -10 -4 -6 1 -7 11 -3 11 4 15 3 10 -5 -3 -6 2 -15 11 -21 16 -8 18 -5
19 22 1 18 -1 27 -3 20 -2 -7 -11 -9 -19 -6 -13 5 -13 7 -2 15 8 5 3 6 -14 2
-15 -3 -35 -1 -45 5 -12 7 -14 10 -4 11 11 0 11 4 -2 18 -10 10 -14 21 -11 24
3 3 -11 11 -31 18 -20 7 -39 9 -42 6 -4 -3 2 -6 12 -6 13 0 16 -3 9 -10 -17
-17 -45 -1 -35 18 4 10 6 23 4 29 -3 7 2 16 11 19 13 5 16 25 16 120 0 66 4
114 10 114 5 0 9 -42 9 -97 0 -187 -1 -179 26 -191 15 -7 27 -8 30 -2 4 6 2
10 -4 10 -6 0 -10 48 -10 120 -1 102 1 120 15 120 8 0 13 4 9 10 -9 15 42 43
62 35 10 -5 21 -7 26 -7 4 1 24 -5 43 -13 42 -17 57 -19 31 -4 -43 25 -125 47
-136 36 -6 -6 -14 -7 -18 -3 -4 4 -1 12 7 17 13 9 13 10 0 6 -8 -2 -15 -12
-15 -22 0 -10 -5 -20 -11 -22 -18 -6 -25 25 -9 41 13 13 8 17 -38 34 -28 11
-64 25 -80 31 -24 9 -30 7 -57 -21 -18 -18 -30 -25 -30 -17 0 8 9 20 20 27 28
17 25 25 -16 44 -33 15 -39 15 -61 1 -13 -9 -26 -13 -29 -10 -3 3 4 8 15 12
12 3 21 11 21 16 0 13 -14 11 -28 -3 -9 -9 -15 -9 -24 1 -11 10 -10 11 5 6 9
-4 17 -3 17 1 0 14 -137 67 -151 58 -8 -5 -9 -3 -4 6 6 10 3 12 -13 8 -12 -4
-20 -3 -17 2 6 10 -74 30 -122 30 -21 -1 -50 -7 -65 -15z m89 -1 c-3 -3 -12
-4 -19 -1 -8 3 -5 6 6 6 11 1 17 -2 13 -5z m-96 -37 c-10 -9 -11 -8 -5 6 3 10
9 15 12 12 3 -3 0 -11 -7 -18z m179 3 c0 -5 -7 -7 -15 -4 -8 4 -15 8 -15 10 0
2 7 4 15 4 8 0 15 -4 15 -10z m130 -70 c-8 -5 -19 -10 -25 -10 -5 0 -3 5 5 10
8 5 20 10 25 10 6 0 3 -5 -5 -10z m163 -20 c8 0 8 -3 0 -11 -9 -9 -16 -7 -30
7 -17 17 -17 18 0 11 10 -4 24 -7 30 -7z m96 -44 c22 -12 22 -13 5 -20 -11 -4
-34 -9 -52 -12 -29 -4 -32 -2 -19 10 9 9 24 13 38 9 24 -5 24 -5 4 10 -24 20
-9 21 24 3z m91 -30 c0 -1 -19 -2 -42 -2 -24 0 -35 1 -25 4 9 2 15 7 12 12 -3
5 8 4 25 -1 16 -6 30 -12 30 -13z m-446 -102 c-20 -16 -13 -16 33 3 10 4 14 2
10 -4 -4 -6 0 -13 8 -17 8 -3 15 -10 15 -16 0 -6 -7 -4 -16 5 -10 9 -26 14
-38 11 -12 -2 -32 2 -46 10 -22 13 -22 14 -3 9 12 -3 24 -1 28 5 3 5 11 10 18
10 6 0 2 -7 -9 -16z m36 -39 c11 -13 10 -14 -4 -9 -9 3 -16 10 -16 15 0 13 6
11 20 -6z m187 -59 c-1 -28 -3 -31 -14 -20 -11 11 -11 17 -1 34 7 11 14 20 14
20 1 0 2 -15 1 -34z m-35 12 c-9 -9 -15 -9 -24 0 -9 9 -7 12 12 12 19 0 21 -3
12 -12z m253 -198 c3 -5 2 -10 -4 -10 -5 0 -13 5 -16 10 -3 6 -2 10 4 10 5 0
13 -4 16 -10z"/>
<path d="M3800 3830 c0 -32 14 -40 24 -15 6 18 -2 45 -15 45 -5 0 -9 -13 -9
-30z"/>
<path d="M3660 3840 c-9 -6 -10 -10 -3 -10 6 0 15 5 18 10 8 12 4 12 -15 0z"/>
<path d="M3653 3804 c16 -9 31 -13 35 -10 3 3 0 6 -7 6 -7 0 -9 5 -6 10 4 6
-6 10 -22 10 l-28 -1 28 -15z"/>
<path d="M3700 3787 c3 -3 35 -16 71 -30 46 -18 66 -21 66 -12 0 7 -9 10 -21
8 -20 -4 -20 -4 -3 10 16 13 16 15 1 21 -25 10 -41 7 -24 -5 15 -10 -24 -6
-75 8 -11 3 -18 3 -15 0z"/>
<path d="M3857 3736 c-4 -9 2 -16 16 -20 27 -7 28 -5 7 17 -15 15 -18 15 -23
3z"/>
<path d="M4008 3713 c7 -3 16 -2 19 1 4 3 -2 6 -13 5 -11 0 -14 -3 -6 -6z"/>
<path d="M3995 3691 c-3 -5 0 -13 6 -17 7 -4 9 -3 5 4 -3 5 0 13 6 15 9 4 10
6 1 6 -6 1 -14 -3 -18 -8z"/>
<path d="M4027 3659 c7 -7 15 -10 18 -7 3 3 -2 9 -12 12 -14 6 -15 5 -6 -5z"/>
<path d="M4060 3646 c0 -2 7 -7 16 -10 8 -3 12 -2 9 4 -6 10 -25 14 -25 6z"/>
<path d="M4120 3622 c8 -5 26 -13 40 -16 17 -5 20 -4 10 2 -8 5 -26 13 -40 16
-17 5 -20 4 -10 -2z"/>
<path d="M4278 3603 c7 -3 16 -2 19 1 4 3 -2 6 -13 5 -11 0 -14 -3 -6 -6z"/>
<path d="M3632 3581 c-19 -12 14 -24 41 -15 16 5 17 8 6 15 -18 11 -30 11 -47
0z m35 -7 c-3 -3 -12 -4 -19 -1 -8 3 -5 6 6 6 11 1 17 -2 13 -5z"/>
<path d="M3796 3564 c8 -3 10 -64 6 -202 -2 -108 -1 -194 3 -190 3 3 8 14 10
25 2 10 4 20 5 23 1 3 2 80 3 172 2 132 -1 169 -11 173 -17 6 -31 5 -16 -1z"/>
<path d="M4358 3563 c7 -3 16 -2 19 1 4 3 -2 6 -13 5 -11 0 -14 -3 -6 -6z"/>
<path d="M3708 3387 c-2 -95 0 -177 4 -182 4 -6 3 -17 -2 -25 -15 -23 -12 -33
7 -26 10 4 14 4 10 0 -6 -7 11 -20 84 -67 l25 -17 0 33 c-1 27 -5 32 -24 30
-13 -2 -21 1 -17 7 3 6 14 10 23 11 9 0 12 3 5 5 -6 3 -24 -2 -38 -12 -20 -13
-29 -14 -38 -5 -8 8 -8 11 2 11 9 0 11 15 7 53 -3 28 -5 120 -5 202 -1 141 -2
151 -20 152 -18 2 -20 -8 -23 -170z m113 -271 c-9 -11 -9 -15 1 -19 9 -4 9 -6
1 -6 -6 -1 -15 4 -18 9 -8 12 2 30 17 30 7 0 7 -5 -1 -14z"/>
<path d="M3868 3533 c7 -3 16 -2 19 1 4 3 -2 6 -13 5 -11 0 -14 -3 -6 -6z"/>
<path d="M3870 3510 c8 -5 20 -10 25 -10 6 0 3 5 -5 10 -8 5 -19 10 -25 10 -5
0 -3 -5 5 -10z"/>
<path d="M3945 3501 c22 -11 47 -20 55 -20 17 0 -34 23 -71 33 -13 3 -6 -3 16
-13z"/>
<path d="M4010 3470 c-7 -4 7 -10 31 -14 23 -4 43 -5 45 -4 7 7 -66 24 -76 18z"/>
<path d="M4000 3439 c0 -5 9 -9 20 -9 11 0 20 2 20 4 0 2 -9 6 -20 9 -11 3
-20 1 -20 -4z"/>
<path d="M4008 3413 c7 -3 16 -2 19 1 4 3 -2 6 -13 5 -11 0 -14 -3 -6 -6z"/>
<path d="M4218 3413 c7 -3 16 -2 19 1 4 3 -2 6 -13 5 -11 0 -14 -3 -6 -6z"/>
<path d="M3880 3280 c0 -73 4 -120 10 -120 6 0 10 47 10 120 0 73 -4 120 -10
120 -6 0 -10 -47 -10 -120z"/>
<path d="M3396 3367 c-17 -13 -18 -14 -2 -20 10 -4 14 -3 11 2 -3 6 3 14 12
20 10 6 13 11 7 11 -5 0 -18 -6 -28 -13z"/>
<path d="M4488 3373 c7 -3 16 -2 19 1 4 3 -2 6 -13 5 -11 0 -14 -3 -6 -6z"/>
<path d="M3850 3065 c0 -2 10 -10 23 -16 20 -11 21 -11 8 4 -13 16 -31 23 -31
12z"/>
<path d="M3904 3038 c-4 -6 -3 -8 4 -4 5 3 12 1 14 -5 2 -7 9 -10 16 -8 8 3 5
9 -7 16 -15 9 -22 10 -27 1z"/>
<path d="M4020 2980 c46 -25 64 -25 22 0 -18 11 -38 20 -45 20 -6 -1 4 -9 23
-20z"/>
<path d="M4118 2943 c7 -3 16 -2 19 1 4 3 -2 6 -13 5 -11 0 -14 -3 -6 -6z"/>
<path d="M4278 2903 c7 -3 16 -2 19 1 4 3 -2 6 -13 5 -11 0 -14 -3 -6 -6z"/>
<path d="M4418 2873 c7 -3 16 -2 19 1 4 3 -2 6 -13 5 -11 0 -14 -3 -6 -6z"/>
<path d="M3700 2835 c-10 -12 -10 -19 -2 -27 9 -9 12 -257 12 -969 0 -526 -3
-984 -6 -1018 -5 -44 -11 -61 -22 -61 -10 0 -13 -7 -8 -23 3 -12 6 -25 6 -29
0 -8 140 -9 153 -1 5 3 0 12 -10 20 -10 8 -13 16 -8 19 7 3 9 347 7 1011 -1
555 -2 1018 -2 1031 0 12 -4 22 -10 22 -7 0 -10 -348 -10 -1025 0 -969 -1
-1025 -17 -1025 -15 0 -16 -2 -3 -10 12 -7 12 -12 3 -21 -7 -7 -16 -9 -20 -5
-5 4 -9 478 -11 1053 -2 886 -4 1047 -16 1059 -18 18 -21 18 -36 -1z"/>
<path d="M3910 2840 c8 -5 20 -10 25 -10 6 0 3 5 -5 10 -8 5 -19 10 -25 10 -5
0 -3 -5 5 -10z"/>
<path d="M4000 2800 c8 -5 22 -9 30 -9 10 0 8 3 -5 9 -27 12 -43 12 -25 0z"/>
<path d="M3880 1755 c0 -657 3 -995 10 -995 7 0 10 338 10 995 0 657 -3 995
-10 995 -7 0 -10 -338 -10 -995z"/>
<path d="M4295 2720 c19 -8 73 -14 64 -6 -2 2 -22 6 -44 9 -28 5 -34 4 -20 -3z"/>
<path d="M4448 2693 c7 -3 16 -2 19 1 4 3 -2 6 -13 5 -11 0 -14 -3 -6 -6z"/>
<path d="M4488 2693 c7 -3 16 -2 19 1 4 3 -2 6 -13 5 -11 0 -14 -3 -6 -6z"/>
<path d="M4628 2683 c7 -3 16 -2 19 1 4 3 -2 6 -13 5 -11 0 -14 -3 -6 -6z"/>
<path d="M3541 503 c0 -120 4 -227 8 -238 15 -36 3 -44 -57 -39 -45 3 -51 2
-29 -5 16 -6 36 -7 44 -4 10 4 14 2 10 -4 -6 -10 29 -21 83 -29 8 -1 23 -5 33
-9 10 -4 17 -3 17 4 0 11 -4 12 -52 15 -40 3 -46 15 -18 37 19 14 22 21 12 27
-11 7 -13 58 -12 236 1 221 0 226 -20 226 -20 0 -20 -5 -19 -217z"/>
<path d="M3485 250 c-13 -6 -15 -9 -5 -9 8 0 22 4 30 9 18 12 2 12 -25 0z"/>
<path d="M3660 170 c0 -5 5 -10 10 -10 6 0 10 5 10 10 0 6 -4 10 -10 10 -5 0
-10 -4 -10 -10z"/>
<path d="M3708 173 c7 -3 16 -2 19 1 4 3 -2 6 -13 5 -11 0 -14 -3 -6 -6z"/>
<path d="M3753 163 c9 -2 23 -2 30 0 6 3 -1 5 -18 5 -16 0 -22 -2 -12 -5z"/>
<path d="M3700 156 c0 -3 26 -10 57 -16 32 -7 64 -14 73 -17 8 -2 6 1 -5 8
-11 7 -27 14 -35 15 -8 2 -32 5 -52 8 -21 4 -38 4 -38 2z"/>
<path d="M4028 83 c7 -3 16 -2 19 1 4 3 -2 6 -13 5 -11 0 -14 -3 -6 -6z"/>
<path d="M4298 43 c7 -3 16 -2 19 1 4 3 -2 6 -13 5 -11 0 -14 -3 -6 -6z"/>
</g>
</svg>
